<?xml version="1.0" encoding="iso-8859-1"?>
<!-- Uploaded to: SVG Repo, www.svgrepo.com, Generator: SVG Repo Mixer Tools -->
<svg height="800px" width="800px" version="1.1" id="Layer_1" xmlns="http://www.w3.org/2000/svg" xmlns:xlink="http://www.w3.org/1999/xlink" 
	 viewBox="0 0 512.001 512.001" xml:space="preserve">
<path style="fill:#54B558;" d="M320.272,400.681c-16.754,3.998-188.126-71.815-204.288-71.411
	C29.981,205.233,88.378,66.42,88.378,66.42c14.945,73.58,82.225,90.559,133.995,132.032
	C285.904,237.635,306.321,390.571,320.272,400.681z"/>
<path style="fill:#67CE6F;" d="M329.825,446.537c-22.246,22.955-54.11,38.023-86.176,36.861
	C59.231,476.653,9.575,304.44,8.876,301.98c15.952,29.516,57.079,28.538,107.108,27.29c16.161-0.406,33.258-0.828,50.74-0.27
	c97.025-25.431,196.717-11.978,206.827-25.931C376.961,317.346,357.103,428.299,329.825,446.537z"/>
<path style="fill:#F24141;" d="M470.902,359.79c-8.737-13.068-22.976-26.487-39.459-37.437c19.159-4.964,37.01-12.994,49.54-22.485
	c67.332-51.006-40.423-73.338-40.423-73.338s2.561-105.881-59.642-58.767c-9.419,7.141-18.831,17.373-27.168,29.262
	c-3.971-13.969-9.521-26.714-16.087-36.518c-46.951-70.224-75.595,36.022-75.595,36.022s-105.548-8.794-62.177,56.091
	c7.678,11.468,19.591,23.223,33.542,33.333c-16.754,3.998-32.254,10.309-43.735,17.985c-70.224,46.951,36.024,75.582,36.024,75.582
	s-8.798,105.561,56.091,62.177c11.465-7.665,23.221-19.578,33.331-33.529c4.011,16.757,10.322,32.257,17.987,43.722
	c46.948,70.237,75.595-36.022,75.595-36.022S514.277,424.649,470.902,359.79z"/>
<path style="fill:#D83535;" d="M387.828,383.345c-1.854-0.368-4.976-2.15-8.855-4.828c-46.062-31.814-63.653-91.372-43.406-143.563
	c8.684-22.386,18.183-37.928,18.183-37.928c-3.971-13.969-9.521-26.714-16.087-36.518c-3.783-5.659-7.445-10.155-10.984-13.671
	c0.034,0.146,0.076,0.289,0.109,0.434c10.179,43.843-25.565,94.756-25.565,94.756c-16.804-47.692-39.152-45.5-39.152-45.5
	l0.001-0.007c0,0.001-0.002,0.011-0.002,0.011s-105.548-8.794-62.177,56.091c7.678,11.468,19.591,23.223,33.542,33.333
	c-16.754,3.998-32.254,10.309-43.735,17.985c-70.224,46.951,36.024,75.582,36.024,75.582s-8.798,105.561,56.091,62.177
	c11.465-7.665,23.221-19.578,33.331-33.529c4.011,16.757,10.322,32.257,17.987,43.722
	C328.847,375.314,387.828,383.345,387.828,383.345z"/>
<ellipse transform="matrix(-0.1948 0.9808 -0.9808 -0.1948 593.1321 -339.1942)" style="fill:#F2D546;" cx="435.792" cy="73.86" rx="45.961" ry="22.193"/>
<path d="M99.503,311.026c1.396,0,2.813-0.33,4.134-1.027c4.336-2.287,5.995-7.656,3.707-11.99
	c-30.538-57.874-31.898-116.655-27.662-155.776c2.009-18.556,5.431-34.587,8.672-46.81c6.507,14.493,15.769,27.518,27.955,39.382
	c3.511,3.42,9.129,3.346,12.549-0.167c3.42-3.512,3.344-9.13-0.167-12.55c-16.967-16.519-27.015-34.77-31.618-57.435
	c-0.775-3.816-3.946-6.681-7.82-7.065c-3.876-0.385-7.547,1.801-9.057,5.39c-0.534,1.268-13.118,31.567-18.094,76.725
	c-4.598,41.741-3.206,104.525,29.542,166.589C93.237,309.306,96.317,311.026,99.503,311.026z"/>
<path d="M384.679,310.161c0.769,0.206,1.542,0.304,2.303,0.304c3.919,0,7.504-2.615,8.567-6.58c1.268-4.734-1.542-9.601-6.276-10.87
	c-3.062-0.82-6.119-1.51-9.088-2.049c-4.822-0.877-9.442,2.32-10.321,7.142c-0.877,4.822,2.32,9.443,7.142,10.321
	C379.501,308.882,382.081,309.466,384.679,310.161z"/>
<path d="M511.289,261.957c-3.078-13.641-16.022-25.275-38.471-34.579c-8.997-3.729-17.675-6.314-23.453-7.844
	c-0.183-5.898-0.736-14.776-2.31-24.237c-3.201-19.255-9.276-32.922-18.101-40.773c2.041-8.652,3.895-17.738,5.514-27.302
	c14.01-3.9,26.791-22.203,31.781-47.327c6.089-30.663-2.419-56.389-19.792-59.839c-9.336-1.858-18.866,2.943-26.831,13.51
	c-6.591,8.743-11.679,20.898-14.325,34.224c-5.052,25.434-0.052,47.457,11.712,56.203c-1.357,8.03-2.891,15.688-4.562,23.013
	c-10.83-1.263-23.19,3.307-36.901,13.692c-6.308,4.783-12.628,10.837-18.689,17.867c-3.423-8.617-7.417-16.404-11.822-22.993
	c-1.95-2.918-3.932-5.636-5.889-8.08c-3.064-3.824-8.649-4.444-12.474-1.38c-3.826,3.064-4.443,8.649-1.38,12.474
	c1.641,2.048,3.319,4.353,4.989,6.85c5.389,8.061,10.102,18.41,13.75,30.096c-14.318,21.503-23.916,45.654-26.486,66.873
	c-0.589,4.866,2.878,9.288,7.743,9.877c4.868,0.588,9.288-2.878,9.877-7.743c2.374-19.607,11.796-42.36,25.85-62.422
	c7.949-11.344,16.683-20.776,25.25-27.273c6.372-4.825,14.631-9.85,21.728-10.225c-12.206,43.731-29.285,73.298-43.07,91.739
	c-15.664,20.955-29.849,31.516-35.083,35.01c-1.414-1.768-2.801-3.772-4.131-6.08c-2.447-4.247-7.874-5.703-12.121-3.256
	c-4.246,2.447-5.705,7.874-3.256,12.12c13.772,23.893,33.06,27.118,42.471,27.118c3.206,0,5.267-0.374,5.571-0.434
	c4.811-0.937,7.952-5.596,7.016-10.407c-0.936-4.811-5.593-7.952-10.407-7.016c-0.084,0.017-4.263,0.758-9.941-1.054
	c17.142-12.967,55.198-49.026,78.144-126.144c6.58,13.453,8.83,35.598,8.496,50.103c-0.104,4.287,2.872,8.035,7.07,8.904
	c16.533,3.427,51.783,15.428,55.217,30.645c2.074,9.193-8.836,19.717-18.354,26.926c-10.633,8.055-26.031,15.233-42.689,19.957
	c-4.946-3.135-10.008-6.034-15.106-8.616c-4.371-2.214-9.712-0.466-11.928,3.907c-2.215,4.372-0.465,9.712,3.907,11.928
	c5.661,2.867,11.29,6.154,16.731,9.772c15.557,10.341,29.039,23.091,36.986,34.978c5.857,8.761,11.887,20.825,7.348,28.543
	c-7.686,13.068-41.751,15.38-61.411,13.768c-4.268-0.356-8.188,2.395-9.305,6.534c-4.394,16.301-18.446,50.782-33.84,53.313
	c-9.298,1.525-19.167-9.985-25.805-19.914c-6.418-9.6-11.95-22.633-15.758-37.019c13.285-19.206,22.434-40,25.879-58.958
	c0.877-4.823-2.322-9.442-7.145-10.318c-4.823-0.878-9.441,2.322-10.318,7.145c-3.139,17.274-12.328,37.372-25.209,55.144
	c-9.593,13.243-20.632,24.384-31.08,31.37c-8.765,5.86-20.832,11.89-28.549,7.351c-13.067-7.687-15.376-41.751-13.762-61.413
	c0.356-4.273-2.394-8.19-6.534-9.305c-16.301-4.394-50.782-18.448-53.315-33.841c-1.53-9.301,9.985-19.167,19.914-25.805
	c9.6-6.418,22.634-11.95,37.019-15.758c19.208,13.285,40.004,22.432,58.96,25.878c0.537,0.098,1.071,0.146,1.597,0.146
	c4.207,0,7.942-3.004,8.721-7.289c0.877-4.823-2.322-9.441-7.145-10.318c-17.275-3.14-37.373-12.328-55.145-25.209
	c-13.242-9.593-24.383-20.631-31.369-31.079c-5.86-8.763-11.891-20.831-7.351-28.549c7.686-13.068,41.749-15.379,61.413-13.762
	c4.28,0.359,8.19-2.394,9.305-6.534c0.041-0.151,4.182-15.358,11.73-29.868c4.936-9.485,14.823-25.146,25.582-23.452
	c4.84,0.766,9.385-2.544,10.148-7.386c0.763-4.842-2.544-9.385-7.386-10.148c-20.654-3.254-35.373,16.038-44.09,32.794
	c-5.192,9.981-8.896,20.091-11.019,26.547c-5.9-0.163-14.795-0.136-24.333,0.878c-2.253,0.239-4.409,0.536-6.515,0.861
	c-13.856-10.732-28.579-19.87-42.861-28.707c-10.234-6.332-19.902-12.313-29.172-18.791c-4.017-2.807-9.55-1.826-12.358,2.191
	c-2.808,4.018-1.826,9.55,2.191,12.358c9.676,6.761,20.008,13.154,30,19.335c10.103,6.251,20.43,12.66,30.373,19.6
	c-8.438,3.723-14.576,8.747-18.298,15.068c-5.726,9.721-5.41,21.476,0.859,35.043c-43.43-31.02-65.808-81.321-66.186-82.186
	c-1.948-4.495-7.17-6.561-11.67-4.617c-4.498,1.948-6.565,7.173-4.618,11.671c1.461,3.375,36.337,82.297,107.664,108.58
	c1.277,1.209,2.584,2.41,3.925,3.6c-11.331,3.929-21.595,8.839-29.836,14.349c-11.377,7.607-19.296,15.437-23.73,23.424
	c-15.799-0.316-31.362,0.069-45.274,0.418c-47.719,1.188-85.437,2.128-98.945-22.392c-0.167-0.336-0.355-0.664-0.566-0.979
	c-2.409-3.613-7.071-4.939-11.028-3.153c-3.957,1.784-6.04,6.184-4.926,10.38c0.014,0.053,0.028,0.106,0.044,0.16
	c0.575,2.019,13.635,46.879,50.11,92.227c21.317,26.502,46.373,47.919,74.474,63.652c35.05,19.623,74.885,30.38,118.401,31.973
	c1.24,0.045,2.483,0.067,3.727,0.067c28.472,0,57.902-11.694,81.123-32.013c11.683,16.25,23.868,24.455,36.321,24.455
	c1.561,0,3.127-0.129,4.695-0.387c13.798-2.27,26.174-14.505,36.783-36.367c4.252-8.761,7.344-17.271,9.211-22.95
	c5.9,0.163,14.795,0.134,24.334-0.88c23.875-2.538,39.567-9.912,46.638-21.919c7.403-12.57,4.751-28.525-7.884-47.422
	c-6.662-9.963-16.158-20.026-27.473-29.249c13.7-5.012,25.967-11.418,35.533-18.664
	C506.229,291.872,514.624,276.738,511.289,261.957z M422.711,71.247c2.105-10.601,6.147-20.443,11.09-26.998
	c3.598-4.773,6.965-6.822,8.799-6.822c0.143,0,0.277,0.012,0.401,0.037c3.149,0.626,10.89,13.539,5.84,38.972
	c-5.05,25.431-17.114,34.403-20.29,33.783C425.401,109.593,417.66,96.679,422.711,71.247z M243.972,474.53
	c-40.671-1.487-77.806-11.487-110.374-29.722c-26.108-14.617-49.43-34.565-69.315-59.288c-15.827-19.677-26.92-39.126-34.33-54.54
	c22.407,8.754,52.864,7.996,86.254,7.163c13.195-0.331,26.765-0.661,40.717-0.476c0.065,0.776,0.153,1.552,0.28,2.33
	c2.27,13.8,14.505,26.174,36.367,36.784c8.761,4.252,17.27,7.344,22.949,9.211c-0.04,1.45-0.069,3.081-0.075,4.856
	c-52.538,4.759-116.241-24.622-117.079-25.013c-4.437-2.079-9.722-0.166-11.801,4.273c-2.079,4.439-0.166,9.722,4.273,11.801
	c0.766,0.359,19.068,8.878,44.743,16.334c24.972,7.252,47.647,10.895,67.713,10.895c4.443,0,8.745-0.198,12.929-0.556
	c0.054,0.579,0.114,1.16,0.175,1.744c2.537,23.877,9.91,39.568,21.916,46.641c4.635,2.73,9.727,4.092,15.259,4.092
	c9.475,0,20.238-4,32.17-11.977c8.24-5.509,16.701-13.118,24.662-22.087c2.199,6.341,4.706,12.344,7.454,17.849
	C297.653,464.459,270.105,475.477,243.972,474.53z"/>
<path d="M109.223,266.701c-0.553,4.87,2.948,9.266,7.818,9.818l31.665,3.591c0.34,0.039,0.677,0.057,1.011,0.057
	c4.454,0,8.294-3.345,8.807-7.875c0.553-4.87-2.948-9.266-7.818-9.818l-31.665-3.591
	C114.169,258.329,109.776,261.832,109.223,266.701z"/>
<path d="M118.543,214.233l-13.628-2.707c-4.81-0.954-9.479,2.169-10.433,6.977c-0.954,4.808,2.169,9.478,6.977,10.433l13.628,2.707
	c0.583,0.116,1.164,0.172,1.738,0.172c4.147,0,7.856-2.924,8.695-7.148C126.473,219.859,123.35,215.188,118.543,214.233z"/>
<path d="M193.362,420.508c-3.7-3.215-9.305-2.819-12.52,0.88l-13.992,16.108c-3.214,3.7-2.82,9.305,0.88,12.52
	c1.68,1.459,3.752,2.175,5.816,2.175c2.481,0,4.95-1.035,6.705-3.055l13.992-16.108
	C197.457,429.329,197.063,423.723,193.362,420.508z"/>
</svg>