<?xml version="1.0" encoding="iso-8859-1"?>
<!-- Uploaded to: SVG Repo, www.svgrepo.com, Generator: SVG Repo Mixer Tools -->
<svg height="800px" width="800px" version="1.1" id="Layer_1" xmlns="http://www.w3.org/2000/svg" xmlns:xlink="http://www.w3.org/1999/xlink" 
	 viewBox="0 0 512 512" xml:space="preserve">
<path style="fill:#F0C419;" d="M256.007,182.981c4.919,0,9.728,0.492,14.373,1.421c9.487,1.891,18.319,5.629,26.09,10.821
	c8.045,5.356,14.963,12.275,20.308,20.319h0.011c5.181,7.771,8.919,16.592,10.81,26.09c0.929,4.645,1.421,9.455,1.421,14.373
	c0,4.919-0.492,9.728-1.421,14.373c-1.891,9.487-5.629,18.319-10.821,26.09c-5.356,8.045-12.264,14.952-20.308,20.308
	c-7.771,5.192-16.603,8.93-26.09,10.821c-4.645,0.929-9.455,1.421-14.373,1.421s-9.728-0.492-14.373-1.421
	c-9.498-1.891-18.319-5.629-26.09-10.81v-0.011c-8.045-5.345-14.963-12.264-20.319-20.308c-5.192-7.771-8.93-16.603-10.821-26.09
	c-0.929-4.645-1.421-9.455-1.421-14.373c0-4.919,0.492-9.728,1.421-14.373c1.891-9.498,5.629-18.33,10.821-26.101
	c5.356-8.045,12.275-14.963,20.319-20.308v-0.011c7.771-5.181,16.592-8.919,26.09-10.81
	C246.279,183.473,251.088,182.981,256.007,182.981z"/>
<g>
	<path style="fill:#FFF3E6;" d="M215.543,195.223c-8.045,5.345-14.963,12.264-20.319,20.308
		c-18.833-6.962-43.753-19.237-64.433-39.917c-38.933-38.922-48.082-92.906-48.082-92.906s53.984,9.149,92.906,48.082
		c20.68,20.669,32.954,45.6,39.928,64.422V195.223z"/>
	<path style="fill:#FFF3E6;" d="M110.625,224.297c29.238,0,55.547,8.941,73.778,17.335c-0.929,4.645-1.421,9.455-1.421,14.373
		c0,4.919,0.492,9.728,1.421,14.373c-18.231,8.383-44.54,17.324-73.778,17.324c-55.055,0-99.694-31.697-99.694-31.697
		S55.57,224.297,110.625,224.297z"/>
	<path style="fill:#FFF3E6;" d="M195.224,296.469c5.356,8.045,12.275,14.963,20.319,20.308v0.011
		c-6.973,18.833-19.248,43.753-39.928,64.433c-38.922,38.922-92.906,48.071-92.906,48.071s9.149-53.973,48.082-92.906
		C151.471,315.706,176.392,303.431,195.224,296.469z"/>
	<path style="fill:#FFF3E6;" d="M241.633,327.598c4.645,0.929,9.455,1.421,14.373,1.421c4.919,0,9.728-0.492,14.373-1.421
		c8.383,18.242,17.324,44.54,17.324,73.789c0,55.055-31.697,99.683-31.697,99.683s-31.708-44.628-31.708-99.683
		C224.298,372.138,233.239,345.84,241.633,327.598z"/>
	<path style="fill:#FFF3E6;" d="M316.778,296.469c18.833,6.962,43.764,19.237,64.444,39.917
		c38.922,38.933,48.071,92.906,48.071,92.906s-53.973-9.148-92.906-48.071c-20.68-20.68-32.954-45.611-39.917-64.444
		C304.514,311.421,311.422,304.513,316.778,296.469z"/>
	<path style="fill:#FFF3E6;" d="M401.388,224.297c55.055,0,99.683,31.708,99.683,31.708s-44.628,31.697-99.683,31.697
		c-29.249,0-55.547-8.941-73.789-17.324c0.929-4.645,1.421-9.455,1.421-14.373c0-4.919-0.492-9.728-1.421-14.373
		C345.841,233.238,372.139,224.297,401.388,224.297z"/>
	<path style="fill:#FFF3E6;" d="M429.293,82.708c0,0-9.148,53.984-48.071,92.906c-20.68,20.68-45.6,32.954-64.433,39.928h-0.011
		c-5.345-8.045-12.264-14.963-20.308-20.319c6.962-18.833,19.237-43.753,39.917-64.433C375.32,91.857,429.293,82.708,429.293,82.708
		z"/>
	<path style="fill:#FFF3E6;" d="M270.38,184.402c-4.645-0.929-9.455-1.421-14.373-1.421c-4.919,0-9.728,0.492-14.373,1.421
		c-8.394-18.231-17.335-44.54-17.335-73.778c0-55.055,31.708-99.694,31.708-99.694s31.697,44.639,31.697,99.694
		C287.704,139.862,278.763,166.171,270.38,184.402z"/>
</g>
<path d="M270.372,195.335c-1.528,0-3.08-0.321-4.559-1.002c-5.485-2.523-7.886-9.013-5.365-14.497
	c7.447-16.195,16.325-41.349,16.325-69.212c0-32.447-12.024-61.416-20.769-78.193c-8.745,16.772-20.776,45.744-20.776,78.193
	c0,27.882,8.882,53.024,16.333,69.207c2.525,5.484,0.126,11.975-5.357,14.5c-5.484,2.524-11.975,0.126-14.5-5.357
	c-8.365-18.168-18.336-46.509-18.336-78.349c0-57.877,32.35-104.084,33.727-106.023C249.146,1.715,252.466,0,256.007,0
	c0,0,0,0,0.001,0c3.54,0,6.861,1.715,8.91,4.602c1.377,1.938,33.716,48.146,33.716,106.022c0,31.819-9.965,60.166-18.324,78.345
	C278.468,192.974,274.509,195.335,270.372,195.335z"/>
<path d="M195.223,226.465c-1.259,0-2.539-0.22-3.789-0.682c-18.768-6.94-45.866-19.934-68.371-42.439
	C82.134,142.427,72.33,86.879,71.933,84.535c-0.592-3.491,0.544-7.052,3.047-9.555c2.504-2.504,6.065-3.639,9.555-3.047
	c2.345,0.397,57.893,10.201,98.809,51.13c22.473,22.463,35.487,49.569,42.446,68.353c2.098,5.661-0.791,11.95-6.452,14.046
	c-5.661,2.098-11.95-0.791-14.046-6.452c-6.202-16.737-17.724-40.819-37.405-60.488c-23.044-23.049-51.98-35-69.987-40.645
	c5.674,18.04,17.658,47.055,40.617,70.009c19.708,19.708,43.776,31.213,60.496,37.395c5.662,2.093,8.555,8.38,6.462,14.042
	C203.845,223.733,199.667,226.465,195.223,226.465z"/>
<path d="M110.625,298.633c-57.876,0-104.083-32.339-106.022-33.716c-2.887-2.049-4.602-5.371-4.602-8.91
	c0-3.54,1.714-6.862,4.6-8.911c1.939-1.377,48.146-33.727,106.023-33.727c31.841,0,60.182,9.972,78.349,18.336
	c5.484,2.525,7.882,9.016,5.357,14.5c-2.525,5.484-9.018,7.881-14.5,5.357c-16.183-7.451-41.326-16.333-69.207-16.333
	c-32.593,0-61.505,12.015-78.227,20.758c16.768,8.744,45.758,20.787,78.227,20.787c27.863,0,53.017-8.877,69.212-16.325
	c5.484-2.52,11.975-0.121,14.497,5.365c2.523,5.485,0.12,11.975-5.365,14.497C170.791,288.668,142.444,298.633,110.625,298.633z"/>
<path d="M82.708,440.222c-2.874,0-5.662-1.135-7.729-3.201c-2.504-2.504-3.64-6.064-3.047-9.555
	c0.397-2.344,10.201-57.88,51.129-98.807c22.506-22.505,49.603-35.501,68.372-42.441c5.661-2.094,11.949,0.799,14.042,6.462
	c2.093,5.662-0.799,11.949-6.462,14.042c-16.72,6.182-40.787,17.687-60.495,37.394c-22.942,22.943-34.925,51.928-40.604,69.974
	c18.043-5.677,47.035-17.658,69.973-40.597c19.694-19.694,31.212-43.77,37.406-60.499c2.096-5.662,8.386-8.553,14.045-6.455
	c5.661,2.096,8.551,8.384,6.455,14.045c-6.953,18.776-19.961,45.878-42.448,68.367c-40.917,40.917-96.464,50.721-98.808,51.118
	C83.927,440.17,83.316,440.222,82.708,440.222z"/>
<path d="M256.008,512c-3.54,0-6.861-1.714-8.911-4.599c-1.377-1.938-33.728-48.136-33.728-106.013
	c0-31.832,9.972-60.181,18.335-78.358c2.524-5.485,9.014-7.884,14.499-5.36c5.484,2.524,7.884,9.015,5.36,14.499
	c-7.452,16.193-16.334,41.348-16.334,69.221c0,32.445,12.03,61.412,20.777,78.185c8.742-16.769,20.768-45.736,20.768-78.185
	c0-27.855-8.879-53.02-16.326-69.225c-2.52-5.485-0.118-11.975,5.368-14.496c5.485-2.519,11.976-0.117,14.496,5.368
	c8.358,18.188,18.323,46.545,18.323,78.354c0,57.876-32.34,104.073-33.716,106.011C262.867,510.285,259.547,511.999,256.008,512z"/>
<path d="M429.293,440.222c-0.608,0-1.219-0.05-1.828-0.154c-2.344-0.397-57.879-10.201-98.806-51.117
	c-22.501-22.501-35.5-49.607-42.442-68.383c-2.093-5.662,0.799-11.949,6.462-14.042c5.662-2.095,11.949,0.799,14.042,6.462
	c6.184,16.729,17.693,40.804,37.394,60.505c22.942,22.936,51.927,34.916,69.974,40.596c-5.678-18.041-17.658-47.028-40.597-69.975
	c-19.7-19.699-43.776-31.208-60.504-37.392c-5.662-2.093-8.555-8.38-6.462-14.042c2.093-5.663,8.38-8.555,14.042-6.462
	c18.777,6.942,45.882,19.94,68.382,42.44c40.917,40.929,50.721,96.464,51.118,98.808c0.592,3.491-0.544,7.052-3.047,9.556
	C434.955,439.087,432.166,440.222,429.293,440.222z"/>
<path d="M401.388,298.633c-31.809,0-60.166-9.964-78.354-18.323c-5.486-2.521-7.888-9.011-5.368-14.496
	c2.522-5.485,9.013-7.888,14.496-5.368c16.206,7.448,41.371,16.326,69.225,16.326c32.593,0,61.499-12.011,78.219-20.752
	c-16.764-8.746-45.749-20.793-78.219-20.793c-27.873,0-53.028,8.882-69.221,16.334c-5.484,2.525-11.975,0.124-14.499-5.36
	c-2.524-5.484-0.124-11.975,5.36-14.499c18.177-8.365,46.527-18.335,78.358-18.335c57.877,0,104.074,32.351,106.013,33.728
	c2.886,2.05,4.599,5.371,4.599,8.911c0,3.539-1.715,6.86-4.6,8.91C505.462,266.293,459.264,298.633,401.388,298.633z"/>
<path d="M316.79,226.476c-4.442,0-8.618-2.728-10.251-7.138c-2.095-5.661,0.795-11.949,6.455-14.045
	c16.73-6.194,40.805-17.712,60.499-37.406c9.905-9.905,18.682-21.842,26.086-35.478c2.88-5.305,9.517-7.271,14.821-4.39
	c5.306,2.88,7.27,9.517,4.39,14.821c-8.409,15.485-18.448,29.112-29.839,40.505c-22.489,22.489-49.591,35.497-68.367,42.449
	C319.334,226.255,318.05,226.476,316.79,226.476z"/>
<path d="M420.192,124.617c-1.304,0-2.629-0.235-3.918-0.73c-5.634-2.165-8.448-8.488-6.283-14.123
	c0.208-0.542,0.411-1.079,0.611-1.611c2.119-5.652,8.421-8.515,14.073-6.396c5.652,2.119,8.517,8.419,6.396,14.073
	c-0.22,0.587-0.445,1.179-0.674,1.776C428.728,121.949,424.585,124.617,420.192,124.617z"/>
<path d="M296.469,206.156c-1.259,0-2.539-0.22-3.789-0.682c-5.662-2.093-8.555-8.38-6.462-14.042
	c6.94-18.768,19.934-45.866,42.44-68.371c40.928-40.928,96.464-50.732,98.808-51.129c5.949-1.006,11.595,2.998,12.604,8.95
	s-2.998,11.595-8.95,12.604c-0.492,0.085-51.132,9.163-87.005,45.034c-19.707,19.707-31.212,43.775-37.393,60.495
	C305.091,203.425,300.913,206.156,296.469,206.156z"/>
<path d="M256.007,339.949c-5.54,0-11.097-0.55-16.517-1.634c-10.743-2.139-20.843-6.322-30.009-12.433
	c-0.13-0.087-0.258-0.176-0.384-0.268c-9.131-6.141-16.859-13.908-22.972-23.089c-6.106-9.14-10.295-19.241-12.442-30.012
	c-1.082-5.412-1.632-10.968-1.632-16.509c0-5.54,0.55-11.097,1.634-16.517c2.143-10.766,6.333-20.872,12.451-30.029
	c6.103-9.168,13.83-16.934,22.962-23.076c0.125-0.091,0.252-0.18,0.383-0.267c9.166-6.11,19.265-10.294,30.019-12.434
	c10.819-2.163,22.186-2.165,33.024,0.002c10.762,2.145,20.863,6.334,30.018,12.451c9.168,6.103,16.934,13.83,23.076,22.962
	c0.091,0.125,0.18,0.252,0.267,0.383c6.109,9.164,10.292,19.26,12.433,30.009l0,0c1.084,5.419,1.634,10.976,1.634,16.517
	c0,5.54-0.55,11.097-1.634,16.517c-2.145,10.762-6.334,20.863-12.451,30.018c-6.182,9.286-14.039,17.143-23.339,23.335
	c-9.14,6.106-19.241,10.295-30.012,12.442C267.104,339.399,261.547,339.949,256.007,339.949z M221.949,307.92
	c6.682,4.392,14.021,7.404,21.819,8.957c8.039,1.609,16.448,1.607,24.468,0.002c7.951-1.585,15.404-4.677,22.162-9.191
	c6.894-4.59,12.703-10.399,17.282-17.277c4.525-6.772,7.617-14.227,9.2-22.17c0.803-4.018,1.21-8.132,1.21-12.236
	s-0.407-8.219-1.209-12.229c0-0.003-0.001-0.007-0.002-0.01c-1.552-7.799-4.566-15.137-8.957-21.819
	c-0.084-0.117-0.167-0.236-0.247-0.356c-4.568-6.875-10.376-12.684-17.262-17.27c-6.772-4.525-14.227-7.617-22.17-9.2
	c-8.036-1.608-16.445-1.606-24.466-0.001c-7.808,1.554-15.147,4.568-21.829,8.959c-0.117,0.084-0.236,0.167-0.356,0.247
	c-6.875,4.568-12.684,10.376-17.27,17.262c-4.525,6.773-7.617,14.23-9.2,22.178c-0.804,4.02-1.211,8.134-1.211,12.238
	c0,4.104,0.407,8.219,1.209,12.229c1.585,7.951,4.677,15.404,9.191,22.162c4.595,6.9,10.405,12.708,17.279,17.276
	C221.713,307.753,221.832,307.836,221.949,307.92z"/>
</svg>